<svg xmlns="http://www.w3.org/2000/svg" version="1.1" xmlns:xlink="http://www.w3.org/1999/xlink" xmlns:svgjs="http://svgjs.dev/svgjs" width="1000" height="1125" viewBox="0 0 1000 1125"><g transform="matrix(1,0,0,1,1.7053025658242404e-13,0)"><svg viewBox="0 0 320 360" data-background-color="#ffffff" preserveAspectRatio="xMidYMid meet" height="1125" width="1000" xmlns="http://www.w3.org/2000/svg" xmlns:xlink="http://www.w3.org/1999/xlink"><g id="tight-bounds" transform="matrix(1,0,0,1,0,0)"><svg viewBox="0 0 320 360" height="360" width="320"><rect width="320" height="360" fill="url(#7001b1e6-815d-4048-a889-1ca8537dc28d)" mask="url(#23eaf743-67f4-4d1c-978f-7a41041b6a37)" data-fill-palette-color="tertiary"></rect><g><svg></svg></g><g><svg viewBox="0 0 320 360" height="360" width="320"><g><path xmlns="http://www.w3.org/2000/svg" d="M20.961 227.22l3.726 4.658-1.863-6.056c-0.466-2.795-3.726 0.466-1.863 1.398M25.153 224.425c1.397 2.329 2.795 4.658 2.795 6.987 0 3.261 2.795 4.658 5.123 5.589-3.261-3.726-5.124-13.974-7.918-12.576M204.017 26.929c7.918 0 15.371-0.932 23.756 0.931 20.495 5.124 37.729 15.371 49.374 29.811l32.606 52.169c1.397 13.042 4.192 27.482 3.726 43.319 3.261 0 2.795-4.658 6.521-5.59-3.726 9.316-5.59 20.961-6.521 34.469-2.329-7.453 0-18.632 0.466-24.687-3.261 5.124-5.124 1.397-5.124-0.932 0.466-3.726-1.397-3.261-2.795-4.658-5.124-4.658-8.384-9.782-12.11-17.7 2.329-6.055 2.795-14.905-4.658-19.563-2.329-1.397-5.124-3.726-6.521-7.453-1.863-5.124-5.124-11.179-4.193-19.097 0.466-2.329-6.987 5.124-11.179 1.863-18.166-12.576-36.332-27.016-58.224-39.127-11.645 0-20.029-4.192-24.221-9.316-3.726-4.658-0.932-10.713 4.658-11.179 3.261 0 6.987-0.932 9.782 0.932 0.466-1.863 2.329-4.192 4.657-4.192M157.904 16.215l0.932 0.466c4.658 0.932 6.987 7.453 12.11 5.124 0 3.261 0.466 6.521-0.466 8.85-1.397 3.726-5.59 3.726-8.85 3.726-31.208-1.863-49.374 11.179-68.471 22.358-5.124 3.261-10.713 5.59-14.906 9.782-20.029 18.632-41.921 35.866-47.045 70.335l-4.192 38.195c-0.466 4.192-5.124 8.384-4.192 13.508l3.26 22.824c-3.261-3.261-5.124 0.932-4.192 2.795 0.466 1.397 2.329 6.055 5.124 1.863 3.726 6.987 7.453 20.495 12.576 26.55 15.837 18.632 36.332 35.4 53.101 52.169 4.192-0.932 7.453-0.932 8.384-3.727 1.397 2.795-1.397 5.59-3.726 6.056 7.453 4.658 15.837 8.85 27.016 9.781 14.44 0.932 27.948 3.261 40.524 6.522 6.521-1.863 13.042-2.795 20.029-3.261 2.329 0 3.726-3.726 6.521-4.658l0.466-4.658c2.795 4.192 2.329-1.397 0.466-4.192 3.261 2.795 4.192 5.124 5.589 6.987 0-1.397 3.726-6.521 3.727-0.466l0.931-6.055c1.397-0.932 1.863 5.124 3.261 0.931 1.397-4.192 4.192-0.932 6.987-2.329-0.932 1.863-0.466 5.59 2.794 3.261l3.727-3.261c2.329 5.59 6.055 3.261 7.918 2.329 20.495-13.042 40.99-28.413 60.553-43.784l-0.466 6.055 2.329-7.453c2.329 2.329 4.192 0.466 5.124-0.931 2.795-4.658 6.521-9.316 12.577-13.508-7.453 20.029-16.303 35.866-27.482 48.908l-4.658 5.59c0 3.261-0.932 7.453-4.658 7.918-1.863 0.466-5.59-0.932-8.384 1.863-1.397 1.863 3.261 5.59-0.466 2.795-3.261-2.329-6.521 0-10.248 0.932-2.795 0.932 1.863 3.726 2.795 5.589 0.932 1.863 1.863 3.726 1.398 6.056l-5.124-5.59c-6.055 3.261-9.782 9.316-14.906 13.974-2.329 1.863-1.397 5.124-1.397 7.918-3.261 0-6.987-0.932-8.85 0.932-1.397 1.863-0.932 4.658-0.932 7.453-4.658-0.466-5.124-7.453-9.315-6.056-4.192 0.932-8.85 1.397-12.577 3.727 2.795 5.59-4.658 2.329-3.726 3.26-6.987-4.192-13.042-7.453-20.495-4.658-15.837-5.124-35.4-2.795-49.84-0.931 0-2.329 0.466-4.658-0.466-5.124-0.932 2.329-3.726 1.397-3.26 1.397-8.85-6.055-17.7-9.782-27.016-14.905-8.384 0.932-16.303-3.261-18.632-5.59-6.521-6.055-13.974-2.795-20.029-4.192-13.042-3.261-17.7-16.769-19.098-26.084-0.932-4.658-4.658-6.521-6.055-6.056-6.055-19.563-15.371-37.263-22.824-55.429-1.863-4.658-1.397-9.316-1.397-14.44 2.329 0.932 4.658 0.466 4.192-2.794-2.329-15.371-7.918-27.016-13.974-38.195 3.261-15.837 3.726-34.469 11.179-48.443 6.521-12.576 18.632-19.098 27.016-29.811 2.795-3.726 2.795-8.85 5.59-12.11 9.316-9.316 18.632-19.098 28.879-27.482 4.658-3.726 10.247 0 17.234-1.397 2.329-8.384 11.645-15.837 20.495-13.508 3.726 0.932 11.179-8.85 13.508-9.782 3.726-1.397 1.863 3.726 1.863 6.987 8.85-6.987 20.961-10.713 32.14-14.906" fill="url(#7001b1e6-815d-4048-a889-1ca8537dc28d)" fill-rule="nonzero" stroke="none" stroke-width="1" stroke-linecap="butt" stroke-linejoin="miter" stroke-miterlimit="10" stroke-dasharray="" stroke-dashoffset="0" font-family="none" font-weight="none" font-size="none" text-anchor="none" style="mix-blend-mode: normal" data-fill-palette-color="tertiary"></path></g><g transform="matrix(1,0,0,1,118.67806454677974,90)"><svg viewBox="0 0 82.64387090644053 180" height="180" width="82.64387090644053"><g><svg viewBox="0 0 82.64387090644053 180" height="180" width="82.64387090644053"><g><svg viewBox="0 0 148.2065217391304 322.79676182210983" height="180" width="82.64387090644053"><g transform="matrix(1,0,0,1,0,142.79676182210986)"><svg viewBox="0 0 148.2065217391304 180" height="180" width="148.2065217391304"><g id="textblocktransform"><svg viewBox="0 0 148.2065217391304 180" height="180" width="148.2065217391304" id="textblock"><g><svg viewBox="0 0 148.2065217391304 180" height="180" width="148.2065217391304"><g transform="matrix(1,0,0,1,0,0)"><svg width="148.2065217391304" viewBox="1.7000000476837158 -36.79999923706055 30.299999237060547 36.79999923706055" height="180" data-palette-color="url(#02246abe-10a4-4e30-a667-fc119c22143f)"></svg></g></svg></g></svg></g></svg></g><g transform="matrix(1,0,0,1,28.30744565217391,0)"><svg viewBox="0 0 91.59163043478259 116.53044182210986" height="116.53044182210986" width="91.59163043478259"><g><svg xmlns="http://www.w3.org/2000/svg" xmlns:xlink="http://www.w3.org/1999/xlink" version="1.1" x="0" y="0" viewBox="14.6300048828125 5 70.73899841308594 90" enable-background="new 0 0 100 100" xml:space="preserve" height="116.53044182210986" width="91.59163043478259" class="icon-icon-0" data-fill-palette-color="accent" id="icon-0"></svg></g></svg></g><g></g></svg></g></svg></g></svg></g></svg></g><defs></defs><mask id="3debfd9a-17b5-4145-aa3c-86ffe6d7b080"><g id="SvgjsG1984"><svg viewBox="0 0 320 360" height="360" width="320"><g><svg></svg></g><g><svg viewBox="0 0 320 360" height="360" width="320"><g></g><g transform="matrix(1,0,0,1,118.67806454677974,90)"><svg viewBox="0 0 82.64387090644053 180" height="180" width="82.64387090644053"><g><svg viewBox="0 0 82.64387090644053 180" height="180" width="82.64387090644053"><g><svg viewBox="0 0 148.2065217391304 322.79676182210983" height="180" width="82.64387090644053"><g transform="matrix(1,0,0,1,0,142.79676182210986)"><svg viewBox="0 0 148.2065217391304 180" height="180" width="148.2065217391304"><g id="SvgjsG1983"><svg viewBox="0 0 148.2065217391304 180" height="180" width="148.2065217391304" id="SvgjsSvg1982"><g><svg viewBox="0 0 148.2065217391304 180" height="180" width="148.2065217391304"><g transform="matrix(1,0,0,1,0,0)"><svg width="148.2065217391304" viewBox="1.7000000476837158 -36.79999923706055 30.299999237060547 36.79999923706055" height="180" data-palette-color="url(#02246abe-10a4-4e30-a667-fc119c22143f)"><path d="M19.4 0L14.3 0 1.7-36.8 5.8-36.8 16.9-4.15 27.95-36.8 32-36.8 19.4 0Z" opacity="1" transform="matrix(1,0,0,1,0,0)" fill="white" class="wordmark-text-0" id="SvgjsPath1981"></path></svg></g></svg></g></svg></g></svg></g><g transform="matrix(1,0,0,1,28.30744565217391,0)"><svg viewBox="0 0 91.59163043478259 116.53044182210986" height="116.53044182210986" width="91.59163043478259"><g><svg xmlns="http://www.w3.org/2000/svg" xmlns:xlink="http://www.w3.org/1999/xlink" version="1.1" x="0" y="0" viewBox="14.6300048828125 5 70.73899841308594 90" enable-background="new 0 0 100 100" xml:space="preserve" height="116.53044182210986" width="91.59163043478259" class="icon-icon-0" data-fill-palette-color="accent" id="SvgjsSvg1980"></svg></g></svg></g><g></g></svg></g></svg></g></svg></g></svg></g><defs><mask></mask></defs></svg></g></mask><linearGradient x1="0" x2="1" y1="0.5" y2="0.5" id="02246abe-10a4-4e30-a667-fc119c22143f"><stop stop-color="#ffa62e" offset="0"></stop><stop stop-color="#f71b3d" offset="1"></stop></linearGradient><rect width="320" height="360" fill="url(#02246abe-10a4-4e30-a667-fc119c22143f)" mask="url(#3debfd9a-17b5-4145-aa3c-86ffe6d7b080)" data-fill-palette-color="primary"></rect><mask id="6df4cf75-ac9e-4443-91ab-6d86dd0b1502"><g id="SvgjsG1993"><svg viewBox="0 0 320 360" height="360" width="320"><g><svg></svg></g><g><svg viewBox="0 0 320 360" height="360" width="320"><g></g><g transform="matrix(1,0,0,1,118.67806454677974,90)"><svg viewBox="0 0 82.64387090644053 180" height="180" width="82.64387090644053"><g><svg viewBox="0 0 82.64387090644053 180" height="180" width="82.64387090644053"><g><svg viewBox="0 0 148.2065217391304 322.79676182210983" height="180" width="82.64387090644053"><g transform="matrix(1,0,0,1,0,142.79676182210986)"><svg viewBox="0 0 148.2065217391304 180" height="180" width="148.2065217391304"><g id="SvgjsG1992"><svg viewBox="0 0 148.2065217391304 180" height="180" width="148.2065217391304" id="SvgjsSvg1991"><g><svg viewBox="0 0 148.2065217391304 180" height="180" width="148.2065217391304"><g transform="matrix(1,0,0,1,0,0)"><svg width="148.2065217391304" viewBox="1.7000000476837158 -36.79999923706055 30.299999237060547 36.79999923706055" height="180" data-palette-color="url(#02246abe-10a4-4e30-a667-fc119c22143f)"></svg></g></svg></g></svg></g></svg></g><g transform="matrix(1,0,0,1,28.30744565217391,0)"><svg viewBox="0 0 91.59163043478259 116.53044182210986" height="116.53044182210986" width="91.59163043478259"><g><svg xmlns="http://www.w3.org/2000/svg" xmlns:xlink="http://www.w3.org/1999/xlink" version="1.1" x="0" y="0" viewBox="14.6300048828125 5 70.73899841308594 90" enable-background="new 0 0 100 100" xml:space="preserve" height="116.53044182210986" width="91.59163043478259" class="icon-icon-0" data-fill-palette-color="accent" id="SvgjsSvg1990"><g fill="white"><path d="M59.875 72.678H40.31c-2.033 0-3.688 1.654-3.688 3.688v2.569c0 2.033 1.654 3.688 3.688 3.688h19.565c2.033 0 3.688-1.654 3.688-3.688v-2.569C63.563 74.333 61.908 72.678 59.875 72.678zM51 74.678h3.542v5.944H51V74.678zM49 80.622h-3.357v-5.944H49V80.622zM38.622 78.935v-2.569c0-0.931 0.757-1.688 1.688-1.688h3.333v5.944H40.31C39.379 80.622 38.622 79.865 38.622 78.935zM61.563 78.935c0 0.931-0.757 1.688-1.688 1.688h-3.333v-5.944h3.333c0.931 0 1.688 0.757 1.688 1.688V78.935z" fill="white"></path><path d="M34.266 22.735c0.552 0 1-0.448 1-1C35.266 13.61 41.875 7 50 7s14.734 6.61 14.734 14.735c0 0.552 0.448 1 1 1s1-0.448 1-1C66.734 12.507 59.228 5 50 5s-16.734 7.507-16.734 16.735C33.266 22.287 33.713 22.735 34.266 22.735z" fill="white"></path><path d="M50 10.912c-5.967 0-10.822 4.855-10.822 10.823 0 0.552 0.448 1 1 1s1-0.448 1-1c0-4.865 3.958-8.823 8.822-8.823s8.822 3.958 8.822 8.823c0 0.552 0.448 1 1 1s1-0.448 1-1C60.822 15.767 55.967 10.912 50 10.912z" fill="white"></path><path d="M48.721 61.234c0-5.514-4.486-10-10-10s-10 4.486-10 10 4.486 10 10 10S48.721 66.748 48.721 61.234zM30.721 61.234c0-4.411 3.589-8 8-8s8 3.589 8 8-3.589 8-8 8S30.721 65.645 30.721 61.234z" fill="white"></path><path d="M35.935 57.492c0.172 0 0.347-0.044 0.506-0.138 1.353-0.796 3.126-0.812 4.492-0.04 0.479 0.271 1.091 0.103 1.363-0.378 0.271-0.48 0.103-1.091-0.378-1.363-1.975-1.117-4.534-1.095-6.491 0.057-0.476 0.28-0.635 0.894-0.354 1.369C35.258 57.316 35.592 57.492 35.935 57.492z" fill="white"></path><path d="M40.979 65.127c-0.478 0.277-0.64 0.89-0.362 1.367 0.186 0.319 0.521 0.498 0.866 0.498 0.17 0 0.343-0.043 0.501-0.135 1.997-1.161 3.238-3.315 3.238-5.623 0-0.008 0-0.08-0.001-0.087-0.013-0.548-0.472-0.992-1.011-0.945-0.548 0.006-0.988 0.484-0.988 1.032C43.221 62.832 42.362 64.324 40.979 65.127z" fill="white"></path><path d="M36.487 65.141c-1.389-0.796-2.257-2.283-2.266-3.881-0.003-0.55-0.45-0.994-1-0.994-0.002 0-0.004 0-0.006 0-0.552 0.003-0.997 0.454-0.994 1.006 0.013 2.308 1.267 4.455 3.271 5.604 0.157 0.09 0.328 0.132 0.497 0.132 0.347 0 0.684-0.18 0.869-0.502C37.132 66.027 36.966 65.416 36.487 65.141z" fill="white"></path><path d="M41.677 61.234c0-1.63-1.326-2.956-2.956-2.956s-2.956 1.326-2.956 2.956 1.326 2.956 2.956 2.956S41.677 62.864 41.677 61.234z" fill="white"></path><path d="M61.279 51.234c-5.514 0-10 4.486-10 10s4.486 10 10 10 10-4.486 10-10S66.793 51.234 61.279 51.234zM61.279 69.234c-4.411 0-8-3.589-8-8s3.589-8 8-8 8 3.589 8 8S65.69 69.234 61.279 69.234z" fill="white"></path><path d="M58.492 57.491c0.172 0 0.347-0.044 0.506-0.138 0.688-0.405 1.475-0.619 2.278-0.619 0 0 0.001 0 0.002 0 0.776 0 1.541 0.201 2.211 0.58 0.482 0.271 1.09 0.102 1.363-0.378 0.271-0.481 0.103-1.091-0.378-1.363-0.971-0.549-2.076-0.839-3.195-0.839-0.001 0-0.002 0-0.003 0-1.159 0-2.298 0.31-3.292 0.896-0.476 0.28-0.635 0.894-0.354 1.369C57.816 57.315 58.149 57.491 58.492 57.491z" fill="white"></path><path d="M59.045 65.141c-1.389-0.796-2.257-2.283-2.266-3.88-0.003-0.551-0.45-0.995-1-0.995-0.002 0-0.004 0-0.005 0-0.552 0.003-0.998 0.453-0.995 1.005 0.013 2.308 1.266 4.456 3.271 5.605 0.157 0.09 0.328 0.132 0.497 0.132 0.347 0 0.684-0.18 0.869-0.502C59.689 66.027 59.524 65.416 59.045 65.141z" fill="white"></path><path d="M66.767 60.202c-0.548 0.006-0.988 0.484-0.988 1.032 0 1.598-0.859 3.09-2.243 3.894-0.478 0.277-0.64 0.89-0.362 1.367 0.186 0.319 0.521 0.498 0.866 0.498 0.17 0 0.343-0.043 0.501-0.135 1.998-1.161 3.238-3.315 3.238-5.623 0-0.008 0-0.08-0.001-0.087-0.012-0.543-0.456-0.945-0.998-0.945C66.775 60.202 66.771 60.202 66.767 60.202z" fill="white"></path><path d="M64.234 61.234c0-1.63-1.326-2.956-2.956-2.956s-2.956 1.326-2.956 2.956 1.326 2.956 2.956 2.956S64.234 62.864 64.234 61.234z" fill="white"></path><path d="M21.111 67.043c-0.552 0-1 0.448-1 1v4.075c0 0.552 0.448 1 1 1s1-0.448 1-1v-4.075C22.111 67.491 21.664 67.043 21.111 67.043z" fill="white"></path><path d="M77.098 60.234h-0.604v-5.223c0-7.168-5.832-13-13-13h-4.268c-0.464-4.268-3.862-7.666-8.13-8.131v-7.368c2.18-0.501 3.814-2.448 3.814-4.777 0-2.708-2.203-4.91-4.91-4.91s-4.911 2.203-4.911 4.91c0 2.398 1.731 4.393 4.007 4.819v7.326c-4.265 0.464-7.66 3.857-8.129 8.131h-4.462c-7.168 0-13 5.832-13 13v5.223h-0.604c-4.561 0-8.271 3.71-8.271 8.271v3.207c0 4.553 3.71 8.257 8.271 8.257h0.604V82c0 7.168 5.832 13 13 13h26.989c7.168 0 13-5.832 13-13v-2.031h0.604c4.561 0 8.271-3.704 8.271-8.257v-3.207C85.37 63.944 81.659 60.234 77.098 60.234zM50 18.824c1.604 0 2.91 1.306 2.91 2.91 0 1.605-1.306 2.911-2.91 2.911M50.096 35.823c3.623 0 6.62 2.697 7.11 6.188H50l-0.001-6.187C49.999 35.823 50.064 35.823 50.096 35.823zM22.902 77.969c-0.268 0-0.531-0.023-0.791-0.055v-1.721c0-0.552-0.448-1-1-1s-1 0.448-1 1v1.115c-2.06-1.027-3.481-3.146-3.481-5.595v-3.207c0-2.455 1.421-4.579 3.481-5.608v1.071c0 0.552 0.448 1 1 1s1-0.448 1-1v-1.679c0.26-0.033 0.522-0.055 0.791-0.055h0.604v15.735H22.902zM74.495 82c0 6.065-4.935 11-11 11H36.505c-6.065 0-11-4.935-11-11V55.011c0-6.065 4.935-11 11-11h26.989c6.065 0 11 4.935 11 11V82zM83.37 71.712c0 2.449-1.421 4.568-3.481 5.595v-1.115c0-0.552-0.448-1-1-1s-1 0.448-1 1v1.721c-0.26 0.033-0.522 0.055-0.791 0.055h-0.604V62.234h0.604c0.268 0 0.531 0.023 0.791 0.055v1.679c0 0.552 0.448 1 1 1s1-0.448 1-1v-1.071c2.06 1.029 3.481 3.153 3.481 5.608V71.712z" fill="white"></path><path d="M78.889 67.043c-0.552 0-1 0.448-1 1v4.075c0 0.552 0.448 1 1 1s1-0.448 1-1v-4.075C79.889 67.491 79.441 67.043 78.889 67.043z" fill="white"></path></g></svg></g></svg></g><g></g></svg></g></svg></g></svg></g></svg></g><defs><mask></mask></defs><mask><g id="SvgjsG1989"><svg viewBox="0 0 320 360" height="360" width="320"><g><svg></svg></g><g><svg viewBox="0 0 320 360" height="360" width="320"><g></g><g transform="matrix(1,0,0,1,118.67806454677974,90)"><svg viewBox="0 0 82.64387090644053 180" height="180" width="82.64387090644053"><g><svg viewBox="0 0 82.64387090644053 180" height="180" width="82.64387090644053"><g><svg viewBox="0 0 148.2065217391304 322.79676182210983" height="180" width="82.64387090644053"><g transform="matrix(1,0,0,1,0,142.79676182210986)"><svg viewBox="0 0 148.2065217391304 180" height="180" width="148.2065217391304"><g id="SvgjsG1988"><svg viewBox="0 0 148.2065217391304 180" height="180" width="148.2065217391304" id="SvgjsSvg1987"><g><svg viewBox="0 0 148.2065217391304 180" height="180" width="148.2065217391304"><g transform="matrix(1,0,0,1,0,0)"><svg width="148.2065217391304" viewBox="1.7000000476837158 -36.79999923706055 30.299999237060547 36.79999923706055" height="180" data-palette-color="url(#02246abe-10a4-4e30-a667-fc119c22143f)"></svg></g></svg></g></svg></g></svg></g><g transform="matrix(1,0,0,1,28.30744565217391,0)"><svg viewBox="0 0 91.59163043478259 116.53044182210986" height="116.53044182210986" width="91.59163043478259"><g><svg xmlns="http://www.w3.org/2000/svg" xmlns:xlink="http://www.w3.org/1999/xlink" version="1.1" x="0" y="0" viewBox="14.6300048828125 5 70.73899841308594 90" enable-background="new 0 0 100 100" xml:space="preserve" height="116.53044182210986" width="91.59163043478259" class="icon-icon-0" data-fill-palette-color="accent" id="SvgjsSvg1985"></svg></g></svg></g><g></g></svg></g></svg></g></svg></g></svg></g><defs><mask></mask></defs></svg></g></mask></svg></g></mask><linearGradient x1="0" x2="1" y1="0.5" y2="0.5" id="5b53b3b6-0cf0-438c-82bc-5688484295f9"><stop stop-color="#ffa62e" offset="0"></stop><stop stop-color="#f71b3d" offset="1"></stop></linearGradient><rect width="320" height="360" fill="url(#5b53b3b6-0cf0-438c-82bc-5688484295f9)" mask="url(#6df4cf75-ac9e-4443-91ab-6d86dd0b1502)" data-fill-palette-color="accent"></rect><mask id="23eaf743-67f4-4d1c-978f-7a41041b6a37"><g id="SvgjsG2010"><svg viewBox="0 0 320 360" height="360" width="320"><g><svg></svg></g><g><svg viewBox="0 0 320 360" height="360" width="320"><g><path xmlns="http://www.w3.org/2000/svg" d="M20.961 227.22l3.726 4.658-1.863-6.056c-0.466-2.795-3.726 0.466-1.863 1.398M25.153 224.425c1.397 2.329 2.795 4.658 2.795 6.987 0 3.261 2.795 4.658 5.123 5.589-3.261-3.726-5.124-13.974-7.918-12.576M204.017 26.929c7.918 0 15.371-0.932 23.756 0.931 20.495 5.124 37.729 15.371 49.374 29.811l32.606 52.169c1.397 13.042 4.192 27.482 3.726 43.319 3.261 0 2.795-4.658 6.521-5.59-3.726 9.316-5.59 20.961-6.521 34.469-2.329-7.453 0-18.632 0.466-24.687-3.261 5.124-5.124 1.397-5.124-0.932 0.466-3.726-1.397-3.261-2.795-4.658-5.124-4.658-8.384-9.782-12.11-17.7 2.329-6.055 2.795-14.905-4.658-19.563-2.329-1.397-5.124-3.726-6.521-7.453-1.863-5.124-5.124-11.179-4.193-19.097 0.466-2.329-6.987 5.124-11.179 1.863-18.166-12.576-36.332-27.016-58.224-39.127-11.645 0-20.029-4.192-24.221-9.316-3.726-4.658-0.932-10.713 4.658-11.179 3.261 0 6.987-0.932 9.782 0.932 0.466-1.863 2.329-4.192 4.657-4.192M157.904 16.215l0.932 0.466c4.658 0.932 6.987 7.453 12.11 5.124 0 3.261 0.466 6.521-0.466 8.85-1.397 3.726-5.59 3.726-8.85 3.726-31.208-1.863-49.374 11.179-68.471 22.358-5.124 3.261-10.713 5.59-14.906 9.782-20.029 18.632-41.921 35.866-47.045 70.335l-4.192 38.195c-0.466 4.192-5.124 8.384-4.192 13.508l3.26 22.824c-3.261-3.261-5.124 0.932-4.192 2.795 0.466 1.397 2.329 6.055 5.124 1.863 3.726 6.987 7.453 20.495 12.576 26.55 15.837 18.632 36.332 35.4 53.101 52.169 4.192-0.932 7.453-0.932 8.384-3.727 1.397 2.795-1.397 5.59-3.726 6.056 7.453 4.658 15.837 8.85 27.016 9.781 14.44 0.932 27.948 3.261 40.524 6.522 6.521-1.863 13.042-2.795 20.029-3.261 2.329 0 3.726-3.726 6.521-4.658l0.466-4.658c2.795 4.192 2.329-1.397 0.466-4.192 3.261 2.795 4.192 5.124 5.589 6.987 0-1.397 3.726-6.521 3.727-0.466l0.931-6.055c1.397-0.932 1.863 5.124 3.261 0.931 1.397-4.192 4.192-0.932 6.987-2.329-0.932 1.863-0.466 5.59 2.794 3.261l3.727-3.261c2.329 5.59 6.055 3.261 7.918 2.329 20.495-13.042 40.99-28.413 60.553-43.784l-0.466 6.055 2.329-7.453c2.329 2.329 4.192 0.466 5.124-0.931 2.795-4.658 6.521-9.316 12.577-13.508-7.453 20.029-16.303 35.866-27.482 48.908l-4.658 5.59c0 3.261-0.932 7.453-4.658 7.918-1.863 0.466-5.59-0.932-8.384 1.863-1.397 1.863 3.261 5.59-0.466 2.795-3.261-2.329-6.521 0-10.248 0.932-2.795 0.932 1.863 3.726 2.795 5.589 0.932 1.863 1.863 3.726 1.398 6.056l-5.124-5.59c-6.055 3.261-9.782 9.316-14.906 13.974-2.329 1.863-1.397 5.124-1.397 7.918-3.261 0-6.987-0.932-8.85 0.932-1.397 1.863-0.932 4.658-0.932 7.453-4.658-0.466-5.124-7.453-9.315-6.056-4.192 0.932-8.85 1.397-12.577 3.727 2.795 5.59-4.658 2.329-3.726 3.26-6.987-4.192-13.042-7.453-20.495-4.658-15.837-5.124-35.4-2.795-49.84-0.931 0-2.329 0.466-4.658-0.466-5.124-0.932 2.329-3.726 1.397-3.26 1.397-8.85-6.055-17.7-9.782-27.016-14.905-8.384 0.932-16.303-3.261-18.632-5.59-6.521-6.055-13.974-2.795-20.029-4.192-13.042-3.261-17.7-16.769-19.098-26.084-0.932-4.658-4.658-6.521-6.055-6.056-6.055-19.563-15.371-37.263-22.824-55.429-1.863-4.658-1.397-9.316-1.397-14.44 2.329 0.932 4.658 0.466 4.192-2.794-2.329-15.371-7.918-27.016-13.974-38.195 3.261-15.837 3.726-34.469 11.179-48.443 6.521-12.576 18.632-19.098 27.016-29.811 2.795-3.726 2.795-8.85 5.59-12.11 9.316-9.316 18.632-19.098 28.879-27.482 4.658-3.726 10.247 0 17.234-1.397 2.329-8.384 11.645-15.837 20.495-13.508 3.726 0.932 11.179-8.85 13.508-9.782 3.726-1.397 1.863 3.726 1.863 6.987 8.85-6.987 20.961-10.713 32.14-14.906" fill="white" fill-rule="nonzero" stroke="none" stroke-width="1" stroke-linecap="butt" stroke-linejoin="miter" stroke-miterlimit="10" stroke-dasharray="" stroke-dashoffset="0" font-family="none" font-weight="none" font-size="none" text-anchor="none" style="mix-blend-mode: normal"></path></g><g transform="matrix(1,0,0,1,118.67806454677974,90)"><svg viewBox="0 0 82.64387090644053 180" height="180" width="82.64387090644053"><g><svg viewBox="0 0 82.64387090644053 180" height="180" width="82.64387090644053"><g><svg viewBox="0 0 148.2065217391304 322.79676182210983" height="180" width="82.64387090644053"><g transform="matrix(1,0,0,1,0,142.79676182210986)"><svg viewBox="0 0 148.2065217391304 180" height="180" width="148.2065217391304"><g id="SvgjsG2009"><svg viewBox="0 0 148.2065217391304 180" height="180" width="148.2065217391304" id="SvgjsSvg2008"><g><svg viewBox="0 0 148.2065217391304 180" height="180" width="148.2065217391304"><g transform="matrix(1,0,0,1,0,0)"><svg width="148.2065217391304" viewBox="1.7000000476837158 -36.79999923706055 30.299999237060547 36.79999923706055" height="180" data-palette-color="url(#02246abe-10a4-4e30-a667-fc119c22143f)"></svg></g></svg></g></svg></g></svg></g><g transform="matrix(1,0,0,1,28.30744565217391,0)"><svg viewBox="0 0 91.59163043478259 116.53044182210986" height="116.53044182210986" width="91.59163043478259"><g><svg xmlns="http://www.w3.org/2000/svg" xmlns:xlink="http://www.w3.org/1999/xlink" version="1.1" x="0" y="0" viewBox="14.6300048828125 5 70.73899841308594 90" enable-background="new 0 0 100 100" xml:space="preserve" height="116.53044182210986" width="91.59163043478259" class="icon-icon-0" data-fill-palette-color="accent" id="SvgjsSvg2007"></svg></g></svg></g><g></g></svg></g></svg></g></svg></g></svg></g><defs><mask></mask></defs><mask><g id="SvgjsG2006"><svg viewBox="0 0 320 360" height="360" width="320"><g><svg></svg></g><g><svg viewBox="0 0 320 360" height="360" width="320"><g></g><g transform="matrix(1,0,0,1,118.67806454677974,90)"><svg viewBox="0 0 82.64387090644053 180" height="180" width="82.64387090644053"><g><svg viewBox="0 0 82.64387090644053 180" height="180" width="82.64387090644053"><g><svg viewBox="0 0 148.2065217391304 322.79676182210983" height="180" width="82.64387090644053"><g transform="matrix(1,0,0,1,0,142.79676182210986)"><svg viewBox="0 0 148.2065217391304 180" height="180" width="148.2065217391304"><g id="SvgjsG2005"><svg viewBox="0 0 148.2065217391304 180" height="180" width="148.2065217391304" id="SvgjsSvg2004"><g><svg viewBox="0 0 148.2065217391304 180" height="180" width="148.2065217391304"><g transform="matrix(1,0,0,1,0,0)"><svg width="148.2065217391304" viewBox="1.7000000476837158 -36.79999923706055 30.299999237060547 36.79999923706055" height="180" data-palette-color="url(#02246abe-10a4-4e30-a667-fc119c22143f)"></svg></g></svg></g></svg></g></svg></g><g transform="matrix(1,0,0,1,28.30744565217391,0)"><svg viewBox="0 0 91.59163043478259 116.53044182210986" height="116.53044182210986" width="91.59163043478259"><g><svg xmlns="http://www.w3.org/2000/svg" xmlns:xlink="http://www.w3.org/1999/xlink" version="1.1" x="0" y="0" viewBox="14.6300048828125 5 70.73899841308594 90" enable-background="new 0 0 100 100" xml:space="preserve" height="116.53044182210986" width="91.59163043478259" class="icon-icon-0" data-fill-palette-color="accent" id="SvgjsSvg2002"></svg></g></svg></g><g></g></svg></g></svg></g></svg></g></svg></g><defs><mask></mask></defs></svg></g></mask><mask><g id="SvgjsG2001"><svg viewBox="0 0 320 360" height="360" width="320"><g><svg></svg></g><g><svg viewBox="0 0 320 360" height="360" width="320"><g></g><g transform="matrix(1,0,0,1,118.67806454677974,90)"><svg viewBox="0 0 82.64387090644053 180" height="180" width="82.64387090644053"><g><svg viewBox="0 0 82.64387090644053 180" height="180" width="82.64387090644053"><g><svg viewBox="0 0 148.2065217391304 322.79676182210983" height="180" width="82.64387090644053"><g transform="matrix(1,0,0,1,0,142.79676182210986)"><svg viewBox="0 0 148.2065217391304 180" height="180" width="148.2065217391304"><g id="SvgjsG2000"><svg viewBox="0 0 148.2065217391304 180" height="180" width="148.2065217391304" id="SvgjsSvg1999"><g><svg viewBox="0 0 148.2065217391304 180" height="180" width="148.2065217391304"><g transform="matrix(1,0,0,1,0,0)"><svg width="148.2065217391304" viewBox="1.7000000476837158 -36.79999923706055 30.299999237060547 36.79999923706055" height="180" data-palette-color="url(#02246abe-10a4-4e30-a667-fc119c22143f)"></svg></g></svg></g></svg></g></svg></g><g transform="matrix(1,0,0,1,28.30744565217391,0)"><svg viewBox="0 0 91.59163043478259 116.53044182210986" height="116.53044182210986" width="91.59163043478259"><g><svg xmlns="http://www.w3.org/2000/svg" xmlns:xlink="http://www.w3.org/1999/xlink" version="1.1" x="0" y="0" viewBox="14.6300048828125 5 70.73899841308594 90" enable-background="new 0 0 100 100" xml:space="preserve" height="116.53044182210986" width="91.59163043478259" class="icon-icon-0" data-fill-palette-color="accent" id="SvgjsSvg1998"></svg></g></svg></g><g></g></svg></g></svg></g></svg></g></svg></g><defs><mask></mask></defs><mask><g id="SvgjsG1997"><svg viewBox="0 0 320 360" height="360" width="320"><g><svg></svg></g><g><svg viewBox="0 0 320 360" height="360" width="320"><g></g><g transform="matrix(1,0,0,1,118.67806454677974,90)"><svg viewBox="0 0 82.64387090644053 180" height="180" width="82.64387090644053"><g><svg viewBox="0 0 82.64387090644053 180" height="180" width="82.64387090644053"><g><svg viewBox="0 0 148.2065217391304 322.79676182210983" height="180" width="82.64387090644053"><g transform="matrix(1,0,0,1,0,142.79676182210986)"><svg viewBox="0 0 148.2065217391304 180" height="180" width="148.2065217391304"><g id="SvgjsG1996"><svg viewBox="0 0 148.2065217391304 180" height="180" width="148.2065217391304" id="SvgjsSvg1995"><g><svg viewBox="0 0 148.2065217391304 180" height="180" width="148.2065217391304"><g transform="matrix(1,0,0,1,0,0)"><svg width="148.2065217391304" viewBox="1.7000000476837158 -36.79999923706055 30.299999237060547 36.79999923706055" height="180" data-palette-color="url(#02246abe-10a4-4e30-a667-fc119c22143f)"></svg></g></svg></g></svg></g></svg></g><g transform="matrix(1,0,0,1,28.30744565217391,0)"><svg viewBox="0 0 91.59163043478259 116.53044182210986" height="116.53044182210986" width="91.59163043478259"><g><svg xmlns="http://www.w3.org/2000/svg" xmlns:xlink="http://www.w3.org/1999/xlink" version="1.1" x="0" y="0" viewBox="14.6300048828125 5 70.73899841308594 90" enable-background="new 0 0 100 100" xml:space="preserve" height="116.53044182210986" width="91.59163043478259" class="icon-icon-0" data-fill-palette-color="accent" id="SvgjsSvg1994"></svg></g></svg></g><g></g></svg></g></svg></g></svg></g></svg></g><defs><mask></mask></defs></svg></g></mask></svg></g></mask></svg></g></mask><linearGradient x1="0" x2="1" y1="0.5" y2="0.5" id="7001b1e6-815d-4048-a889-1ca8537dc28d"><stop stop-color="#ffa62e" offset="0"></stop><stop stop-color="#f71b3d" offset="1"></stop></linearGradient></svg><rect width="320" height="360" fill="none" stroke="none" visibility="hidden"></rect></g></svg></g></svg>